<?xml version="1.0" encoding="UTF-8" standalone="no"?>
<!-- Created with Inkscape (http://www.inkscape.org/) -->

<svg
   version="1.1"
   id="svg1"
   width="750"
   height="750"
   viewBox="0 0 749.99999 749.99999"
   sodipodi:docname="weightlifting_logo.svg"
   inkscape:export-filename="weightlifting_logo.png"
   inkscape:export-xdpi="96"
   inkscape:export-ydpi="96"
   inkscape:version="1.4.3 (0d15f75042, 2025-12-25)"
   xmlns:inkscape="http://www.inkscape.org/namespaces/inkscape"
   xmlns:sodipodi="http://sodipodi.sourceforge.net/DTD/sodipodi-0.dtd"
   xmlns="http://www.w3.org/2000/svg"
   xmlns:svg="http://www.w3.org/2000/svg">
  <sodipodi:namedview
     id="namedview1"
     pagecolor="#505050"
     bordercolor="#ffffff"
     borderopacity="1"
     inkscape:showpageshadow="0"
     inkscape:pageopacity="0"
     inkscape:pagecheckerboard="1"
     inkscape:deskcolor="#505050"
     inkscape:zoom="0.73135767"
     inkscape:cx="430.02216"
     inkscape:cy="327.47315"
     inkscape:window-width="1920"
     inkscape:window-height="1080"
     inkscape:window-x="0"
     inkscape:window-y="0"
     inkscape:window-maximized="1"
     inkscape:current-layer="svg1" />
  <defs
     id="defs1" />
  <g
     id="g1"
     transform="matrix(5.1335073,0,0,5.1335073,-27.467118,-27.468703)">
    <path
       style="fill:#000000;stroke-width:1.44204"
       d="m 75.152847,146.09352 c -34.697888,-1.69861 -50.551877,-2.55221 -50.731115,-2.73146 -0.05812,-0.0581 0.308621,-0.1057 0.814963,-0.1057 0.984331,0 16.392548,-0.74943 23.84404,-1.15976 l 4.49917,-0.24773 0.07588,-0.21608 c 0.04174,-0.11882 0.249388,-0.42533 0.461454,-0.68109 l 0.385573,-0.465 1.615086,-0.40655 1.615087,-0.40657 2.249584,-1.47776 2.249585,-1.47779 v -0.52883 -0.52884 l 0.484063,-0.45097 0.484062,-0.45098 -0.163301,-0.76933 c -0.401169,-1.88996 -1.666573,-5.39085 -2.987623,-8.26559 -1.750131,-3.80847 -2.111328,-4.8953 -2.416179,-7.27025 l -0.236929,-1.84581 -1.204224,-2.40646 -1.204222,-2.40647 0.05082,-0.66695 c 0.02795,-0.36683 0.357472,-1.27444 0.732269,-2.01693 l 0.681446,-1.34993 -0.138494,-1.80625 -0.138493,-1.80626 0.374119,-1.45705 c 0.352392,-1.37243 1.321166,-3.347507 1.7815,-3.632001 l 0.208167,-0.128661 -0.230028,0.605019 c -0.255037,0.670793 -0.313085,2.722293 -0.08352,2.951843 0.08057,0.0806 0.429215,-0.4472 0.774748,-1.17286 0.345535,-0.72565 1.062424,-1.838499 1.593089,-2.473005 l 0.964846,-1.15363 -1.278142,-0.554749 c -0.702976,-0.305119 -1.27814,-0.626088 -1.27814,-0.713273 0,-0.329085 2.730085,-4.228597 4.105186,-5.863629 0.787739,-0.936644 1.432253,-1.867212 1.432253,-2.067927 0,-0.200715 0.248604,-0.527827 0.552452,-0.726917 l 0.552452,-0.361981 -0.127952,-0.489281 -0.127952,-0.489282 0.655248,-0.522477 0.655249,-0.522476 -0.291269,-0.350959 -0.29127,-0.350957 0.149973,-0.472526 c 0.08249,-0.259889 0.247686,-0.472525 0.367109,-0.472525 h 0.217134 l -0.288183,-0.461453 -0.288182,-0.461453 0.2915,-0.466769 0.291503,-0.466768 -0.254391,-0.475331 -0.25439,-0.475332 0.340412,-0.384579 0.340413,-0.384578 -0.333965,-2.397464 -0.333968,-2.397463 -0.701383,-2.101706 -0.701383,-2.101708 -0.254736,-2.999446 c -0.140108,-1.649696 -0.23078,-3.91956 -0.201505,-5.044143 l 0.05322,-2.044697 -0.483445,-0.998663 -0.483443,-0.998665 -0.989708,-0.580006 C 62.054626,58.169648 61.031423,57.284513 60.325178,56.521685 L 59.0411,55.134727 58.556601,53.83979 C 58.290128,53.127574 57.978179,51.881634 57.863384,51.071033 57.624715,49.38572 57.723376,49.585427 55.936167,47.169826 54.576846,45.332555 53.60004,43.617013 53.172218,42.315566 52.992017,41.767387 52.69887,36.560858 52.539426,31.076657 l -0.01812,-0.623357 -0.278247,0.09311 c -0.153035,0.05121 -1.425862,0.361845 -2.828503,0.690305 l -2.55026,0.597199 0.09639,2.703547 0.09639,2.703544 -0.258452,1.66576 c -0.31991,2.061876 -0.984192,3.872977 -1.944168,5.300593 l -0.734353,1.092084 -1.053511,0.648191 -1.053515,0.64819 -5.214593,0.888467 -5.214596,0.888468 L 30.6173,48.196005 29.650714,48.019252 28.6975,47.349309 c -1.15989,-0.81519 -2.926853,-2.955203 -3.917625,-4.744718 l -0.733005,-1.323939 -0.372656,-0.0028 c -0.644392,-0.0047 -1.467999,-0.836714 -2.042498,-2.063293 l -0.554032,-1.18288 -1.319116,0.149241 -1.319114,0.14924 -0.267645,-0.500098 c -0.147205,-0.275054 -0.235288,-0.772481 -0.195738,-1.105393 l 0.0719,-0.605295 0.576817,-0.170656 c 0.317249,-0.09386 0.86234,-0.23363 1.211314,-0.310597 l 0.634499,-0.139936 v -0.672763 c 0,-0.992988 0.371647,-1.796839 0.909689,-1.967606 l 0.474671,-0.150655 v -1.117789 c 0,-2.711911 1.065354,-6.285904 2.424099,-8.132234 l 0.802386,-1.090321 0.920359,-0.469533 c 0.506199,-0.258242 2.246131,-0.779575 3.866516,-1.158517 1.620386,-0.378943 3.127853,-0.731515 3.349928,-0.783494 0.625693,-0.146451 0.488412,-4.34e-4 -0.598394,0.636477 -1.918761,1.124468 -3.770775,4.666718 -3.839088,7.342823 -0.0022,0.08632 0.332747,0.06036 0.744333,-0.05769 0.411586,-0.118045 0.878807,-0.214621 1.038269,-0.214621 H 30.8533 v 1.012782 c 0,2.388463 1.469203,7.917904 2.673556,10.062098 0.61225,1.090034 0.60021,1.025156 -0.256906,-1.384361 -0.293416,-0.824847 -0.719157,-2.382251 -0.946092,-3.460899 l -0.412606,-1.961176 -0.0017,-3.230173 -0.0017,-3.230174 0.526653,-1.499723 c 0.655357,-1.866221 1.389839,-3.008968 2.457254,-3.823127 l 0.826351,-0.630287 1.148071,-0.110316 1.148072,-0.110316 1.019256,0.389258 c 2.690075,1.027348 5.101607,4.165292 6.710386,8.731714 l 0.631887,1.793571 0.371923,-0.11496 c 0.910088,-0.281312 5.368553,-1.28079 5.734417,-1.285516 l 0.40567,-0.0052 0.358165,-0.727093 c 0.374895,-0.761053 0.549456,-0.893533 1.776056,-1.347906 0.412424,-0.152774 0.749862,-0.395707 0.749862,-0.539852 v -0.262078 l 1.095952,0.07575 1.095951,0.07575 0.461453,0.528889 0.461455,0.528888 3.230172,-0.641159 c 7.915779,-1.571212 22.973099,-3.045671 32.814943,-3.213341 0.155365,-0.0026 0.443556,-0.316293 0.640423,-0.696992 l 0.35794,-0.69218 h 0.586062 c 0.322334,0 0.777734,-0.102587 1.012011,-0.227964 l 0.425951,-0.227963 1.923824,0.267223 c 1.936408,0.268971 2.962098,0.691302 2.962098,1.219654 v 0.285697 l 1.76526,0.14922 c 0.97089,0.08207 2.15855,0.14922 2.63922,0.14922 h 0.87397 l 0.15049,-1.095952 c 0.0828,-0.602773 0.35967,-2.014346 0.61534,-3.136829 l 0.46484,-2.040876 0.9355,-1.869079 c 1.09358,-2.18489 2.35407,-3.64287 3.7219,-4.305025 l 0.97694,-0.472932 h 1.73675 c 0.95522,0 3.02493,0.06969 4.59936,0.154869 l 2.86263,0.15487 -0.69218,0.296176 c -0.3807,0.162898 -1.08385,0.300861 -1.56255,0.306584 l -0.87039,0.01038 -1.04689,0.96499 -1.04688,0.96499 -0.8844,1.861412 c -0.88765,1.868294 -1.4759,3.996989 -1.75767,6.360581 -0.17398,1.459328 0.0674,1.434952 0.39326,-0.03971 0.12143,-0.549205 0.31706,-1.362914 0.43489,-1.808242 l 0.21426,-0.809688 1.02885,0.08182 1.02886,0.08182 0.33344,-1.12281 c 0.83588,-2.814706 2.83092,-5.884619 4.327,-6.658273 l 0.65431,-0.338354 h 1.05891 1.05893 l 0.85603,0.438999 c 2.14863,1.101886 4.11517,4.870272 5.12879,9.828089 l 0.28298,1.384114 0.54852,0.508364 c 0.30171,0.279602 0.54854,0.712326 0.54854,0.96161 0,0.249282 0.12978,0.505611 0.2884,0.569618 0.15863,0.06401 -0.14016,0.124578 -0.66393,0.134585 l -0.95234,0.01822 -0.26095,0.314454 -0.26098,0.314455 1.07247,0.146998 c 0.58985,0.08085 1.56869,0.146999 2.1752,0.146999 h 1.10273 l 0.68691,-0.394232 0.6869,-0.394234 0.37006,0.307122 0.37006,0.30712 v 0.894656 0.894655 l -0.46495,0.464967 -0.46498,0.464966 -0.51562,-0.104288 c -0.28358,-0.05737 -1.10439,-0.162707 -1.824,-0.234106 l -1.30836,-0.129812 -0.15578,0.709183 c -0.0856,0.390049 -0.44265,1.038907 -0.7933,1.441906 l -0.63752,0.732723 -0.39627,1.79664 -0.39627,1.796641 -0.91638,1.830848 -0.91636,1.830849 -1.14099,1.24843 c -0.62756,0.686637 -1.49483,1.41633 -1.92728,1.621543 l -0.78627,0.373112 -1.23413,-0.0028 c -0.67877,-0.0015 -3.34779,-0.205287 -5.93117,-0.452889 l -4.69704,-0.450183 -1.02616,-0.496753 -1.02616,-0.496754 -0.88333,-1.184578 c -1.99938,-2.681235 -3.15419,-6.424952 -3.26423,-10.582206 -0.0598,-2.25318 0.0368,-2.162253 -2.46039,-2.320006 l -2.13422,-0.134831 v 0.592282 c 0,0.325756 -0.1968,0.916017 -0.43734,1.311695 l -0.43732,0.719414 -0.1119,4.960623 -0.1119,4.960624 -0.39962,1.268997 c -0.21979,0.697948 -0.68516,1.840044 -1.03414,2.537994 -0.34899,0.697947 -0.76909,1.684304 -0.93355,2.191902 -0.164452,0.507599 -0.694991,1.447688 -1.178974,2.089088 l -0.879981,1.166182 -0.220988,1.141085 c -0.121528,0.627597 -0.340125,1.809389 -0.485744,2.626206 -0.145618,0.816817 -0.529983,2.00851 -0.854145,2.648209 l -0.589382,1.163087 -1.42434,1.389508 c -0.783385,0.76423 -1.720067,1.804816 -2.081513,2.312415 -0.361447,0.507597 -0.941576,1.234387 -1.289177,1.615086 l -0.632001,0.692181 -0.09623,1.971649 -0.09623,1.971649 -0.698539,1.492747 -0.698542,1.492745 -1.686878,1.496227 c -0.927782,0.822926 -2.064667,1.866742 -2.526409,2.319593 l -0.839531,0.823365 -0.279789,0.933855 c -0.322939,1.077871 -0.360905,3.944567 -0.06889,5.201842 l 0.199887,0.860625 0.906171,1.100551 c 1.265532,1.536993 1.799978,2.498501 2.278949,4.099998 0.227715,0.761397 0.536516,1.5401 0.686222,1.73045 0.149707,0.190349 0.225238,0.475689 0.167847,0.634089 -0.102558,0.283047 0.680771,1.826968 3.248672,6.403074 1.552409,2.76646 1.527589,2.468335 0.261426,3.140027 -1.243125,0.65948 -1.248135,0.694521 -0.263748,1.844552 0.425987,0.497676 1.116397,1.578406 1.534242,2.401638 0.417847,0.82321 0.799678,1.49676 0.848513,1.49676 0.191829,0 -0.250846,-2.49027 -0.650438,-3.659053 l -0.422721,-1.236417 0.303466,0.251848 c 1.130773,0.938461 2.084599,3.754852 2.551009,7.532442 0.313559,2.5396 0.601419,4.15998 0.945163,5.32042 0.07223,0.24374 -0.382507,-0.59519 -1.010429,-1.86419 l -1.141675,-2.30727 -0.02001,0.96173 c -0.01096,0.52894 -0.07426,1.1031 -0.14057,1.2759 l -0.120569,0.3142 0.811895,0.88637 0.811896,0.8864 0.281973,0.95251 0.281972,0.95252 0.534932,0.42721 c 0.294214,0.23498 0.838771,1.01367 1.210127,1.73045 0.371355,0.71679 0.889323,1.56281 1.151048,1.88005 l 0.475857,0.57682 -0.153113,-0.69217 c -0.08418,-0.38071 -0.255741,-0.84793 -0.38119,-1.03828 -0.125458,-0.19034 0.404417,0.30179 1.177486,1.09363 l 1.405593,1.43972 1.04543,2.13654 c 1.1549,2.3603 1.28409,2.29451 0.57097,-0.29071 -0.60273,-2.18497 -1.30011,-3.37658 -2.930011,-5.00648 l -1.296727,-1.29673 0.756699,0.44288 c 3.473279,2.03286 4.395459,4.06948 5.560119,12.27944 0.39061,2.75357 0.87122,5.75325 1.06801,6.66596 l 0.35781,1.65948 0.54517,0.3572 0.54517,0.35721 0.24089,0.86741 c 0.13252,0.47706 0.24146,1.1292 0.24216,1.44917 l 0.002,0.58176 0.92006,1.37943 0.92006,1.37939 0.14769,0.86522 0.14768,0.86523 0.48965,0.002 c 2.17983,0.006 21.64411,0.95559 21.54805,1.05164 -0.0685,0.0685 -15.43675,0.90256 -29.59527,1.60621 -3.933894,0.19552 -10.838389,0.55888 -15.343327,0.80749 -4.504938,0.24859 -8.709931,0.43283 -9.344429,0.40941 -0.634499,-0.0234 -1.828511,-0.0755 -2.653358,-0.11595 z m 27.079033,-5.2787 c 0.23765,-1.06862 0.25001,-2.65045 0.0298,-3.81846 l -0.15797,-0.83798 0.25279,-0.15623 c 1.28498,-0.79417 -1.45754,-6.3155 -4.91668,-9.89836 l -1.969569,-2.04003 -0.559561,-1.19014 c -0.307757,-0.65458 -0.736272,-2.07269 -0.952256,-3.15134 -0.43762,-2.18553 -0.875846,-3.04604 -2.140656,-4.20345 -0.751544,-0.68773 -1.781836,-1.79421 -3.085751,-3.31399 -0.208863,-0.24345 -0.907849,-0.95318 -1.553302,-1.57718 l -1.173551,-1.13456 -1.048344,-2.15501 -1.048343,-2.15498 -1.436071,-1.03801 -1.43607,-1.038 -1.661646,-1.98692 c -0.913905,-1.0928 -1.900261,-2.337368 -2.191904,-2.765711 -0.748005,-1.098594 -0.701886,-1.14427 -2.970188,2.940831 -1.948021,3.50829 -2.92944,4.61063 -5.866535,6.58929 -1.411385,0.95081 -3.070803,2.58764 -3.571142,3.52254 l -0.277782,0.51904 0.144723,0.77143 0.144723,0.77146 1.529509,2.13008 c 0.841231,1.17155 1.720051,2.63153 1.952936,3.24444 l 0.423428,1.11438 v 1.55567 1.55566 l -0.474634,1.61435 -0.474637,1.61435 0.14109,2.07654 c 0.151506,2.22996 0.683725,5.93365 1.04888,7.29913 l 0.224305,0.83878 0.459681,0.12026 0.459681,0.12027 v 0.49033 c 0,0.26968 0.210531,1.11528 0.467845,1.87912 0.257315,0.76381 0.411361,1.48014 0.342325,1.59185 -0.263516,0.42639 0.425679,0.46313 4.190103,0.22334 l 3.882705,-0.2473 7.152526,0.37448 c 8.535757,0.4469 15.371092,0.74931 15.688572,0.6941 0.12645,-0.0219 0.32036,-0.44678 0.43093,-0.94395 z M 67.446735,121.51041 c 0.472059,-1.44416 -0.238377,-3.42394 -1.761913,-4.90993 l -0.939051,-0.91591 0.612519,1.38435 c 0.708944,1.6023 1.481102,3.97107 1.485421,4.55686 0.0041,0.57574 0.401999,0.49963 0.603024,-0.11537 z m -7.596754,-14.2437 0.963363,-0.42393 0.154607,-1.11656 c 0.19523,-1.4099 0.774424,-3.7473 1.061462,-4.28363 0.429171,-0.80192 -0.163451,-0.38946 -1.48263,1.0319 l -1.339283,1.44302 -0.670916,1.38435 c -0.369004,0.7614 -0.741755,1.68491 -0.828334,2.05226 l -0.157417,0.66789 0.667894,-0.16567 c 0.36734,-0.0911 1.101405,-0.35645 1.631254,-0.58963 z m 7.991524,-40.61156 h 0.556279 l -0.110259,-0.576817 -0.110258,-0.576816 h -0.288078 c -0.392993,0 -1.451999,0.85619 -1.751735,1.41625 l -0.244877,0.457557 0.696332,-0.360088 C 66.97189,66.81719 67.535564,66.65515 67.841518,66.65515 Z m 4.311896,-0.104274 c 0.697948,0 1.476651,0.09481 1.730449,0.210699 l 0.461454,0.210698 -0.334753,-0.411089 c -0.443432,-0.544553 -2.55602,-1.746942 -3.074176,-1.749681 l -0.409482,-0.0022 -0.225016,0.591837 c -0.123756,0.325511 -0.225016,0.80384 -0.225016,1.062956 v 0.471118 l 0.403771,-0.192185 c 0.222075,-0.105671 0.97482,-0.192154 1.672769,-0.192153 z m -6.22962,-1.972267 v -0.230727 l 0.865225,-0.01009 c 0.475874,-0.0056 1.25177,-0.14811 1.724211,-0.316756 l 0.858987,-0.30663 0.14908,0.469705 0.149078,0.469704 0.214715,-0.383675 0.214714,-0.383673 h 0.766493 c 0.898009,0 5.205458,-1.057332 5.4976,-1.349472 l 0.200083,-0.200083 -2.032237,-0.11969 -2.032239,-0.119688 -0.817647,-0.394578 -0.817649,-0.394575 -1.143529,0.705956 c -0.62894,0.388277 -1.711478,0.849612 -2.40564,1.025191 l -1.26211,0.319232 -0.295956,0.725305 -0.295955,0.725306 h 0.231387 c 0.12726,0 0.231389,-0.103828 0.231389,-0.230727 z m 17.262143,-0.403772 -0.073,-0.634499 -0.440036,0.07613 c -0.24202,0.04187 -0.706093,0.249522 -1.031275,0.461452 l -0.59124,0.38533 0.915911,0.14031 c 0.503751,0.07717 1.000679,0.155039 1.104282,0.173045 0.103611,0.01801 0.155517,-0.252782 0.115364,-0.601756 z m -0.230726,-2.42263 0.073,-0.634498 H 82.81677 c -0.202363,0 -2.126482,1.315718 -2.126482,1.454096 0,0.03676 0.493178,0.0101 1.095951,-0.05912 l 1.095952,-0.125977 z m 3.543387,-1.076079 0.847675,-1.681068 0.0884,0.657554 0.0884,0.657551 0.27524,-0.649518 c 0.151381,-0.357235 0.275239,-1.175565 0.275239,-1.818511 v -1.168993 l -0.94865,0.127246 -0.948652,0.127246 -0.661103,0.633376 c -0.363607,0.348357 -0.77909,0.990883 -0.923298,1.427838 l -0.262196,0.794461 0.121247,0.724887 c 0.06668,0.398687 0.234827,1.018849 0.373646,1.378137 l 0.252396,0.653254 0.28699,-0.09119 c 0.157844,-0.05015 0.668443,-0.847671 1.134663,-1.772259 z m -14.240633,-0.93083 c 0.223737,-0.247226 1.093571,-0.671379 1.932964,-0.942559 2.902845,-0.937811 6.52068,-2.985435 8.691275,-4.919091 l 0.922907,-0.822162 -0.796007,-0.0097 -0.796006,-0.0097 0.21919,-0.187713 c 0.120555,-0.103235 0.791003,-0.360172 1.489887,-0.570958 l 1.270696,-0.383251 0.805844,-0.675528 c 1.586756,-1.330162 -0.683593,-0.837306 -3.647354,0.791783 l -1.484042,0.81573 -1.542839,0.101808 c -4.541096,0.299657 -6.93355,2.319368 -7.712373,6.510793 l -0.139332,0.749863 h 0.189199 c 0.104058,0 0.372257,-0.202277 0.595996,-0.449505 z m -2.250228,-0.8311 c 0.279227,-0.181559 0.929915,-1.031926 1.445975,-1.889701 0.516061,-0.857776 1.066306,-1.749439 1.222769,-1.981476 l 0.284476,-0.421884 -1.014326,-0.908399 -1.014326,-0.908399 -1.570154,-0.476921 c -0.863587,-0.262305 -1.752492,-0.441807 -1.975345,-0.398889 l -0.405188,0.07803 -0.322275,1.036994 -0.322275,1.036993 -0.03361,1.961175 -0.0336,1.961177 0.423703,0.776943 0.4237,0.776943 1.191387,-0.156239 c 0.65526,-0.08593 1.419841,-0.304787 1.699065,-0.486347 z m -4.46192,-7.660054 c -0.254335,-4.114674 -1.29964,-5.502679 -5.095326,-6.765802 l -1.485685,-0.494404 -0.421194,-0.692597 c -0.231655,-0.380928 -0.593248,-1.381991 -0.803539,-2.224586 -0.210289,-0.842593 -0.533914,-1.765599 -0.719164,-2.051123 -0.687599,-1.059788 -0.07287,-0.469429 1.081114,1.038269 l 1.192038,1.557405 -0.163536,-0.692179 c -0.23334,-0.987625 -1.801284,-4.274261 -2.544133,-5.332869 l -0.62927,-0.896751 0.115133,1.143821 0.115132,1.143822 -0.552956,-0.913094 c -0.304125,-0.502203 -0.726243,-1.432231 -0.938038,-2.066729 -0.490949,-1.470792 -0.645535,-1.025101 -0.335395,0.96699 0.13261,0.851753 0.204486,1.585258 0.159734,1.630009 -0.120511,0.120511 -0.825447,-2.033902 -0.825447,-2.522736 0,-0.231194 -0.117238,-0.420354 -0.260518,-0.420354 h -0.26052 l 0.163061,1.903496 c 0.08968,1.046922 0.272852,2.42263 0.407044,3.057128 l 0.243986,1.153633 0.8646,0.865225 0.864598,0.865225 h 0.4886 c 0.515796,0 0.673781,0.36127 0.223605,0.51133 l -0.264992,0.08832 1.187898,0.853419 c 0.653345,0.469381 1.187898,0.996354 1.187898,1.171052 v 0.317633 l -0.706892,0.141378 -0.706895,0.141377 0.392078,0.663734 c 0.215641,0.365053 0.689483,0.839415 1.052983,1.054139 0.363498,0.214725 0.660907,0.487466 0.660907,0.606093 0,0.160318 1.204472,1.892209 1.716724,2.46845 0.08365,0.09411 -0.516161,-2.716585 -0.659374,-3.089791 -0.07304,-0.190327 0.602503,0.307442 1.501195,1.106152 l 1.633986,1.452201 1.041429,2.14078 c 1.267655,2.605817 1.232422,2.601837 1.079134,0.121925 z m 7.489334,1.153633 c 0.113186,-0.222074 0.331466,-1.061569 0.485065,-1.865545 l 0.279271,-1.461773 -0.823037,-1.056401 c -0.45267,-0.581022 -0.823036,-1.147439 -0.823036,-1.258704 0,-0.408513 0.998339,-3.302138 1.180823,-3.422535 0.10361,-0.06837 0.165846,-0.43176 0.138291,-0.807544 l -0.05011,-0.683242 0.876833,-0.0723 0.876834,-0.0723 0.256152,-0.562196 0.256155,-0.562197 h 1.347325 1.347326 v -0.217636 c 0,-0.794402 -1.617328,-1.134055 -2.882632,-0.605376 l -0.79127,0.330612 0.137486,-0.734383 c 0.07562,-0.403913 0.34929,-0.967997 0.608169,-1.253521 l 0.470693,-0.519135 1.055733,1.82e-4 1.055733,1.81e-4 1.384361,0.659125 1.38436,0.659122 1.185835,1.26112 c 0.652209,0.693615 1.404955,1.69063 1.672768,2.215586 l 0.486933,0.954467 v 1.170236 1.170235 l -0.35673,0.857814 c -0.1962,0.471799 -0.811211,1.325037 -1.366691,1.896085 l -1.009962,1.038269 -0.155139,1.068674 -0.155139,1.068671 0.22669,0.14011 c 0.124679,0.07706 0.361718,-0.0226 0.526749,-0.221446 0.473896,-0.571008 2.382514,-1.452245 3.924353,-1.811933 1.662938,-0.387937 1.443683,-0.198752 1.919705,-1.656415 0.856694,-2.623348 2.589887,-4.876288 4.810005,-6.252426 l 1.326678,-0.822339 0.0028,-0.717068 c 0.0063,-1.672073 0.848966,-3.67601 2.664943,-6.33812 0.674485,-0.988762 0.973856,-2.000344 1.358715,-4.591174 l 0.28313,-1.906068 -0.251269,-0.200232 c -0.138193,-0.110128 -0.689057,-0.42079 -1.224134,-0.690361 -0.535085,-0.26957 -1.083831,-0.697443 -1.219439,-0.950828 l -0.246559,-0.460699 h -2.360767 c -7.084354,0 -22.19133,1.500801 -30.443865,3.024442 l -2.711038,0.500528 v 0.86682 0.866818 l -1.116151,0.716233 c -0.613883,0.393926 -1.236846,0.716232 -1.384359,0.716232 h -0.268209 l -4.69e-4,0.519135 c -2.59e-4,0.285524 0.167812,1.436031 0.373493,2.55668 l 0.373964,2.037545 1.495893,1.423356 c 0.822741,0.782845 1.795706,1.942488 2.162146,2.576987 l 0.666252,1.153633 0.149738,1.113272 0.149741,1.113272 0.834486,0.526789 c 1.613205,1.01837 3.020549,2.968055 3.790307,5.250952 l 0.131601,0.390307 1.569813,0.467562 1.569812,0.467562 0.807544,0.69016 0.807543,0.69016 0.511018,0.0094 0.511017,0.0094 z m 0.964075,-11.061041 c 0,-0.1269 0.207654,-0.418651 0.461455,-0.648336 0.253799,-0.229686 0.461453,-0.313783 0.461453,-0.186883 0,0.1269 -0.207654,0.418651 -0.461453,0.648336 -0.253801,0.229686 -0.461455,0.313782 -0.461455,0.186883 z m 17.268166,3.699904 c 0.644589,-0.654059 1.486759,-1.413341 1.871486,-1.687291 l 0.699505,-0.498093 -0.149287,0.418296 -0.149291,0.418294 0.671913,-0.624147 c 0.369553,-0.343281 0.868867,-0.957563 1.109589,-1.365072 l 0.437675,-0.740925 -0.396901,0.152306 -0.396902,0.152306 0.145998,-0.460003 c 0.215551,-0.679137 -0.05298,-0.55861 -0.445177,0.199814 l -0.341202,0.659813 -1.25917,0.616054 -1.259167,0.616053 -0.85468,0.946028 c -0.875869,0.969484 -1.809909,2.769665 -2.075878,4.000852 l -0.149527,0.692181 0.684519,-1.153633 c 0.376485,-0.634499 1.211909,-1.688773 1.856497,-2.342833 z m -16.702951,0.169705 0.130995,-0.211953 -0.688563,-0.151233 c -0.712829,-0.156563 -1.161278,-0.0183 -1.161278,0.358027 v 0.21711 h 0.793928 c 0.436659,0 0.852874,-0.09538 0.924918,-0.211951 z m -1.026667,-1.287772 c 0,-0.06345 -0.05192,-0.115363 -0.115363,-0.115363 -0.06345,0 -0.115363,0.05192 -0.115363,0.115363 0,0.06345 0.05192,0.115363 0.115363,0.115363 0.06345,0 0.115363,-0.05192 0.115363,-0.115363 z m 3.973692,-1.268996 c 0.690351,0 0.455521,-0.394691 -0.328073,-0.55141 l -0.738188,-0.147638 -0.308559,0.30856 -0.308561,0.30856 0.147253,0.383738 0.147255,0.383737 0.489379,-0.342773 c 0.269157,-0.188527 0.673931,-0.342774 0.899494,-0.342774 z m 18.428632,-4.224237 0.242672,-0.532608 0.650778,-0.245639 c 1.090197,-0.411504 2.284408,-3.404827 2.309396,-5.788586 l 0.006,-0.523735 -1.32668,1.466018 C 97.092622,33.617098 96.241088,34.787222 95.93,35.411064 l -0.565618,1.134256 -0.01384,1.211315 c -0.01483,1.295824 0.197623,1.54018 0.590135,0.678705 z m -0.483291,-0.85175 c 0,-0.169199 0.06922,-0.238418 0.153817,-0.153819 0.0846,0.08461 0.0846,0.223036 0,0.307637 -0.08461,0.08461 -0.153817,0.01539 -0.153817,-0.153818 z m -56.20136,-3.729177 -0.377358,-0.729729 0.119963,-0.894407 c 0.06598,-0.491922 0.245839,-1.046073 0.399685,-1.231446 l 0.279719,-0.337041 h 0.733147 c 0.40323,0 0.870448,0.129784 1.038261,0.288408 l 0.305114,0.288409 -0.277136,-0.537911 c -0.597503,-1.159737 -2.276522,-1.360011 -2.938012,-0.350447 l -0.360224,0.549772 0.107648,1.120403 0.107662,1.120403 0.513867,0.721658 c 0.661142,0.928489 0.829948,0.92457 0.347661,-0.008 z M 28.321012,26.2324 c 0.325252,-1.380536 1.165601,-3.165172 2.015619,-4.280541 l 0.571467,-0.749862 h -0.253441 c -0.139388,0 -0.645923,0.157039 -1.125621,0.348976 l -0.872177,0.348977 -0.632026,0.792092 c -2.157184,2.703512 -3.054657,6.257384 -1.49115,5.904756 l 0.858746,-0.193678 v 1.446586 c 0,0.79562 0.07665,1.797 0.170319,2.225287 l 0.170318,0.778702 0.149856,-2.698939 c 0.08242,-1.484416 0.279562,-3.249475 0.43809,-3.922354 z m -3.471949,2.770044 c 0.279433,-2.227695 0.926887,-4.088348 1.968543,-5.657196 0.842318,-1.268622 0.809493,-1.384833 -0.275381,-0.974939 -1.721838,0.650556 -3.181931,3.115718 -3.655606,6.171985 l -0.154259,0.995316 0.830311,-0.155769 0.830312,-0.155766 0.03879,1.698444 0.03879,1.698448 0.07794,-0.922907 c 0.04287,-0.507599 0.178125,-1.721525 0.30056,-2.697616 z m 29.307659,1.147309 c 0,-0.09908 -0.110648,-0.180143 -0.245894,-0.180143 -0.379304,0 -1.138466,0.453614 -1.138466,0.680256 v 0.202566 l 0.692179,-0.261267 c 0.380699,-0.1437 0.692181,-0.342334 0.692181,-0.441412 z m 2.207448,-1.289175 0.527771,0.06916 0.606822,-0.894206 0.606827,-0.894205 -0.121377,-0.316309 -0.121377,-0.316308 h -0.814784 -0.814785 v 0.230727 c 0,0.126899 0.245171,0.230726 0.544822,0.230726 h 0.544821 l -0.106177,0.555417 -0.106178,0.555419 -0.810516,0.152053 -0.810515,0.152053 -0.551037,0.551038 c -0.303071,0.303071 -0.551038,0.668814 -0.551038,0.812763 v 0.261725 l 0.724475,-0.609608 0.724478,-0.609605 z m -2.092085,-1.198235 0.142603,-0.230726 h -0.244343 c -0.134384,0 -0.244344,0.103828 -0.244344,0.230726 0,0.1269 0.04578,0.230728 0.10175,0.230728 0.05596,0 0.165915,-0.103828 0.244344,-0.230728 z m 1.216175,-0.649076 0.09138,-0.274144 -0.365369,0.14021 c -0.200953,0.07711 -0.36537,0.241576 -0.36537,0.365474 0,0.303265 0.524391,0.113358 0.639358,-0.231535 z m 45.73669,-1.65819 c 0,-0.1269 -0.25955,-0.230727 -0.57681,-0.230727 -0.31724,0 -0.57682,0.103827 -0.57682,0.230727 0,0.1269 0.25958,0.230727 0.57682,0.230727 0.31726,0 0.57681,-0.103827 0.57681,-0.230727 z m -2.171212,-1.078655 -0.671495,-0.577946 -0.597498,0.103495 c -0.328625,0.05692 -0.779197,0.181195 -1.001274,0.276168 l -0.403767,0.17268 v -0.832227 -0.832229 h 0.447835 c 0.246312,0 0.512,-0.103827 0.590435,-0.230727 l 0.142588,-0.230726 h -0.677549 c -0.812009,0 -1.090334,0.307985 -1.255848,1.3897 l -0.124375,0.812884 0.533303,0.25168 0.533304,0.251679 0.30892,-0.195804 c 0.457406,-0.28992 1.384608,-0.229664 2.039024,0.132509 0.837405,0.463444 0.916133,0.179968 0.136389,-0.491135 z m 30.781322,0.617204 c 0,-0.126901 0.204,-0.230727 0.45334,-0.230727 h 0.45333 l 0.26059,-0.519136 c 0.14334,-0.285523 0.53631,-0.752231 0.87333,-1.037123 l 0.61277,-0.517989 -0.82205,-0.0011 -0.82207,-0.0011 -0.59025,0.634498 c -0.32465,0.348973 -0.65753,0.920022 -0.73976,1.268996 l -0.14947,0.634498 h 0.23511 c 0.12935,0 0.23513,-0.103826 0.23513,-0.230726 z m -0.7824,-0.825591 c 0.0781,-0.311339 0.38998,-0.761066 0.69296,-0.999397 0.67603,-0.531762 0.69491,-0.713006 0.0743,-0.713006 -0.76923,0 -1.30287,0.400731 -1.57564,1.183192 -0.33899,0.972392 -0.3297,1.020247 0.20568,1.060576 l 0.46067,0.03469 z m -3.91669,-4.17298 c 0.33082,-0.655369 0.99736,-1.578142 1.48121,-2.050605 l 0.87974,-0.859026 1.11138,-0.283273 1.1114,-0.283274 -0.97581,-0.165904 -0.9758,-0.165906 -0.77427,0.255533 c -0.98314,0.324465 -1.81219,1.196258 -2.55949,2.691452 -0.53343,1.067262 -0.7714,1.932551 -1.15462,4.198274 l -0.12877,0.761331 0.22725,-0.140454 0.22726,-0.140456 0.013,0.417389 c 0.007,0.229564 0.21602,-0.361314 0.46452,-1.313061 0.24848,-0.951747 0.72249,-2.266661 1.0533,-2.92203 z m -23.55346,2.691304 c 0.18404,0 0.33463,-0.103827 0.33463,-0.230727 0,-0.126899 -0.13965,-0.230727 -0.31033,-0.230727 -0.401,0 -1.12432,0.79571 -0.91427,1.00576 0.0884,0.08843 0.24955,0.0022 0.35806,-0.191769 0.10852,-0.193895 0.34787,-0.352537 0.53191,-0.352537 z m -1.55733,-0.04614 c 0.37682,-0.376824 0.34799,-0.646034 -0.06925,-0.646034 -0.190353,0 -0.346091,0.04342 -0.346091,0.09649 0,0.05307 -0.06303,0.260725 -0.14005,0.461454 l -0.140058,0.36496 h 0.209271 c 0.115088,0 0.333857,-0.124592 0.486148,-0.276871 z m -1.21336,-0.199932 c 0.27055,-0.437771 -0.12405,-0.545794 -0.525876,-0.143959 l -0.39004,0.390037 h 0.381915 c 0.210057,0 0.450352,-0.110734 0.534001,-0.246077 z m 10.74061,-1.62065 c 0.54351,-1.9614 0.61441,-2.031312 1.91155,-1.885106 l 0.96693,0.10899 0.42393,-1.351069 c 0.64834,-2.066185 1.69826,-4.016046 2.74634,-5.100378 l 0.94782,-0.980588 h -0.95593 c -1.30762,0 -1.89126,0.261101 -2.90979,1.301761 l -0.87121,0.890142 -0.91209,1.845814 -0.91207,1.845813 -0.43963,1.845813 c -0.86579,3.635357 -0.86309,4.608308 0.004,1.478809 z m 3.89835,-0.832452 0.24482,-0.968727 1.15561,-0.06955 1.15563,-0.06953 0.65509,-1.895153 c 0.73215,-2.118107 1.80087,-3.927852 2.8318,-4.79533 l 0.68621,-0.577407 h -1.18279 -1.18279 l -0.65606,0.339261 c -1.78105,0.921016 -3.78347,5.094098 -4.26572,8.889805 l -0.13194,1.03827 0.22264,-0.461453 c 0.12242,-0.253799 0.33278,-0.897381 0.46744,-1.430182 z"
       id="path1" />
  </g>
</svg>
